<svg xmlns="http://www.w3.org/2000/svg" width="18" height="18" viewBox="704 121 18 18"><g data-name="Coin-Icon"><path d="M706 124a3 3 0 0 1 3-3h4a3 3 0 0 1 .79 5.895c.135.342.21.715.21 1.105 0 .535-.14 1.037-.385 1.471.191.123.367.266.525.427a5.028 5.028 0 0 0-1.38 1.451.998.998 0 0 0-.76-.349h-4a1 1 0 1 0 0 2h4c.034 0 .068-.002.101-.005-.066.325-.101.66-.101 1.005 0 1.416.589 2.695 1.535 3.605A2.998 2.998 0 0 1 711 139h-4a3 3 0 0 1-1.615-5.529A2.987 2.987 0 0 1 705 132c0-.535.14-1.037.385-1.471a3.001 3.001 0 0 1 .825-5.424A2.992 2.992 0 0 1 706 124Zm5 3a1 1 0 1 1 0 2h-4a1 1 0 1 1 0-2h4Zm2-2h-4a1 1 0 0 1 0-2h4a1 1 0 1 1 0 2Zm-2 10a1 1 0 1 1 0 2h-4a1 1 0 1 1 0-2h4Z" fill="#8d826c" fill-rule="evenodd" data-name="Path 1925"/><path d="M717 131a3 3 0 1 0 0 6 3 3 0 0 0 0-6Zm-5 3a5 5 0 1 1 10 0 5 5 0 0 1-10 0Z" fill="#8d826c" fill-rule="evenodd" data-name="Path 1926"/></g></svg>