<svg xmlns="http://www.w3.org/2000/svg" width="14.185" height="14.185"><g data-name="signout-outline"><path d="M.788 6.304c.435 0 .788.353.788.789v2.521c0 .675 0 1.134.03 1.489.028.345.08.522.142.645.151.297.392.538.689.69.123.062.3.113.645.141.355.03.814.03 1.489.03h5.043c.675 0 1.134 0 1.489-.03.345-.028.522-.079.645-.142.297-.15.538-.392.69-.689.062-.123.113-.3.141-.645.03-.355.03-.814.03-1.489V7.093a.788.788 0 1 1 1.576 0v2.554c0 .634 0 1.158-.035 1.584-.036.443-.114.85-.309 1.233a3.152 3.152 0 0 1-1.377 1.377c-.383.195-.79.273-1.233.31-.426.034-.95.034-1.584.034H4.538c-.634 0-1.158 0-1.584-.035-.443-.036-.85-.114-1.233-.309a3.152 3.152 0 0 1-1.377-1.377c-.195-.383-.273-.79-.31-1.233C0 10.805 0 10.281 0 9.647V7.093c0-.436.353-.789.788-.789Z" fill="#8d826c" fill-rule="evenodd" data-name="Path 1956"/><path d="M8.9 6.535a.788.788 0 1 1 1.114 1.115L7.65 10.014a.788.788 0 0 1-1.115 0L4.171 7.65a.788.788 0 0 1 1.115-1.115l1.018 1.02V.787a.788.788 0 1 1 1.577 0v6.766l1.018-1.019Z" fill="#8d826c" fill-rule="evenodd" data-name="Path 1957"/></g></svg>